{
  "accessors": [
    {
      "bufferView": 2,
      "componentType": 5126,
      "count": 23,
      "max": [
        49.519798278808594,
        59.94940185546875,
        5.0559000968933105
      ],
      "min": [
        -53.43199920654297,
        -57.1885986328125,
        0.0
      ],
      "type": "VEC3"
    },
    {
      "bufferView": 2,
      "byteOffset": 276,
      "componentType": 5126,
      "count": 23,
      "max": [
        0.4160877466201782,
        0.3796795606613159,
        1.0
      ],
      "min": [
        -0.4272831082344055,
        -0.3373890817165375,
        0.8299552798271179
      ],
      "type": "VEC3"
    },
    {
      "bufferView": 1,
      "componentType": 5126,
      "count": 23,
      "max": [
        0.9905999898910522,
        0.9990000128746033
      ],
      "min": [
        0.0010000000474974513,
        0.0010000000474974513
      ],
      "type": "VEC2"
    },
    {
      "bufferView": 0,
      "componentType": 5125,
      "count": 60,
      "type": "SCALAR"
    },
    {
      "bufferView": 2,
      "byteOffset": 552,
      "componentType": 5126,
      "count": 1573,
      "max": [
        23.366300582885742,
        29.02519989013672,
        85.80590057373047
      ],
      "min": [
        -23.366300582885742,
        -23.39389991760254,
        0.0
      ],
      "type": "VEC3"
    },
    {
      "bufferView": 2,
      "byteOffset": 19428,
      "componentType": 5126,
      "count": 1573,
      "max": [
        1.0,
        0.9999935626983643,
        1.0
      ],
      "min": [
        -1.0,
        -1.0,
        -1.0
      ],
      "type": "VEC3"
    },
    {
      "bufferView": 3,
      "componentType": 5126,
      "count": 1573,
      "max": [
        1.0,
        1.0,
        0.9942283630371094,
        1.0
      ],
      "min": [
        -1.0,
        -1.0,
        -0.9965074062347412,
        -1.0
      ],
      "type": "VEC4"
    },
    {
      "bufferView": 1,
      "byteOffset": 184,
      "componentType": 5126,
      "count": 1573,
      "max": [
        0.9994999766349792,
        0.9883999824523926
      ],
      "min": [
        0.0005000000237487257,
        0.0005000000237487257
      ],
      "type": "VEC2"
    },
    {
      "bufferView": 0,
      "byteOffset": 240,
      "componentType": 5125,
      "count": 7044,
      "type": "SCALAR"
    }
  ],
  "asset": {
    "extras": {
      "author": "AnnaBelle Fibonacci (https://sketchfab.com/annabellefibonacci)",
      "license": "CC-BY-4.0 (http://creativecommons.org/licenses/by/4.0/)",
      "source": "https://sketchfab.com/3d-models/vintage-globe-5ae174f9d26f40b99eebe3427153438f",
      "title": "Vintage globe"
    },
    "generator": "Sketchfab-12.68.0",
    "version": "2.0"
  },
  "bufferViews": [
    {
      "buffer": 0,
      "byteLength": 28416,
      "name": "floatBufferViews",
      "target": 34963
    },
    {
      "buffer": 0,
      "byteLength": 12768,
      "byteOffset": 28416,
      "byteStride": 8,
      "name": "floatBufferViews",
      "target": 34962
    },
    {
      "buffer": 0,
      "byteLength": 38304,
      "byteOffset": 41184,
      "byteStride": 12,
      "name": "floatBufferViews",
      "target": 34962
    },
    {
      "buffer": 0,
      "byteLength": 25168,
      "byteOffset": 79488,
      "byteStride": 16,
      "name": "floatBufferViews",
      "target": 34962
    }
  ],
  "buffers": [
    {
      "byteLength": 104656,
      "uri": "scene.bin"
    }
  ],
  "images": [
    {
      "uri": "textures/objects_from_Echo_of_the_Past_Cupboard_baseColor.jpeg"
    },
    {
      "uri": "textures/objects_from_Echo_of_the_Past_Cupboard_metallicRoughness.png"
    },
    {
      "uri": "textures/objects_from_Echo_of_the_Past_Cupboard_normal.png"
    },
    {
      "uri": "textures/wire_135110008_baseColor.png"
    },
    {
      "uri": "textures/wire_135110008_metallicRoughness.png"
    }
  ],
  "materials": [
    {
      "doubleSided": true,
      "name": "objects_from_Echo_of_the_Past_Cupboard",
      "normalTexture": {
        "index": 2
      },
      "pbrMetallicRoughness": {
        "baseColorTexture": {
          "index": 0
        },
        "metallicRoughnessTexture": {
          "index": 1
        }
      }
    },
    {
      "alphaMode": "BLEND",
      "doubleSided": true,
      "name": "wire_135110008",
      "pbrMetallicRoughness": {
        "baseColorTexture": {
          "index": 3
        },
        "metallicRoughnessTexture": {
          "index": 4
        }
      }
    }
  ],
  "meshes": [
    {
      "name": "Object_0",
      "primitives": [
        {
          "attributes": {
            "NORMAL": 1,
            "POSITION": 0,
            "TEXCOORD_0": 2
          },
          "indices": 3,
          "material": 1,
          "mode": 4
        }
      ]
    },
    {
      "name": "Object_1",
      "primitives": [
        {
          "attributes": {
            "NORMAL": 5,
            "POSITION": 4,
            "TANGENT": 6,
            "TEXCOORD_0": 7
          },
          "indices": 8,
          "material": 0,
          "mode": 4
        }
      ]
    }
  ],
  "nodes": [
    {
      "children": [
        1
      ],
      "matrix": [
        0.007682434283196926,
        0.0,
        0.0,
        0.0,
        0.0,
        1.7058430852749775e-18,
        -0.007682434283196926,
        0.0,
        0.0,
        0.007682434283196926,
        1.7058430852749775e-18,
        0.0,
        0.0,
        0.0,
        0.0,
        1.0
      ],
      "name": "Sketchfab_model"
    },
    {
      "children": [
        2,
        3
      ],
      "name": "c897ab008f4844bd887b26922ec9f20a.obj.cleaner.materialmerger.gles"
    },
    {
      "mesh": 0,
      "name": "Object_2"
    },
    {
      "mesh": 1,
      "name": "Object_3"
    }
  ],
  "samplers": [
    {
      "magFilter": 9729,
      "minFilter": 9987,
      "wrapS": 10497,
      "wrapT": 10497
    }
  ],
  "scene": 0,
  "scenes": [
    {
      "name": "Sketchfab_Scene",
      "nodes": [
        0
      ]
    }
  ],
  "textures": [
    {
      "sampler": 0,
      "source": 0
    },
    {
      "sampler": 0,
      "source": 1
    },
    {
      "sampler": 0,
      "source": 2
    },
    {
      "sampler": 0,
      "source": 3
    },
    {
      "sampler": 0,
      "source": 4
    }
  ]
}
